<svg width="30" height="30" viewBox="0 0 30 30" fill="none" xmlns="http://www.w3.org/2000/svg">
<path fill-rule="evenodd" clip-rule="evenodd" d="M13.2764 0C5.94402 0 0 5.94402 0 13.2764C0 20.6087 5.94402 26.5527 13.2764 26.5527C16.6615 26.5527 19.7507 25.2858 22.0958 23.2002L28.8956 30L30 28.8956L23.2002 22.0958C25.2858 19.7507 26.5527 16.6615 26.5527 13.2764C26.5527 5.94402 20.6087 0 13.2764 0ZM1.56192 13.2764C1.56192 6.80665 6.80665 1.56192 13.2764 1.56192C19.7461 1.56192 24.9908 6.80665 24.9908 13.2764C24.9908 19.7461 19.7461 24.9908 13.2764 24.9908C6.80665 24.9908 1.56192 19.7461 1.56192 13.2764Z" fill="black"/>
</svg>
